 <svg  version="1.0" xmlns="http://www.w3.org/2000/svg"  width="300.000000pt" height="172.000000pt" viewBox="0 0 300.000000 172.000000"  preserveAspectRatio="xMidYMid meet">  <g transform="translate(0.000000,172.000000) scale(0.100000,-0.100000)" fill="#ffffff" stroke="none"> <path d="M1598 1135 c3 -20 -2 -28 -27 -42 -36 -21 -48 -54 -32 -89 10 -23 9 -24 -23 -24 -67 0 -127 -67 -95 -106 7 -9 13 -26 14 -39 2 -49 80 -101 133 -89 35 9 68 39 81 75 13 38 -4 38 -24 0 -35 -69 -98 -80 -151 -27 -19 19 -34 38 -34 43 0 5 32 7 72 5 56 -4 79 0 105 13 18 10 33 22 33 27 0 13 -12 10 -32 -8 -27 -25 -108 -30 -152 -9 -77 37 -24 104 84 106 39 1 48 3 30 8 -19 5 -26 15 -28 38 -3 27 2 34 27 47 32 17 46 45 36 76 -9 29 -23 25 -17 -5z"/> <path d="M1511 1075 c0 -11 -10 -26 -21 -33 -11 -7 -20 -22 -19 -35 0 -14 2 -17 6 -7 3 8 14 22 25 31 13 10 18 24 15 40 -3 19 -5 20 -6 4z"/> <path d="M600 950 c0 -103 -1 -110 -20 -110 -13 0 -20 -7 -20 -20 0 -15 7 -20 28 -20 47 0 52 14 52 142 0 111 -1 118 -20 118 -19 0 -20 -7 -20 -110z"/> <path d="M735 1048 c-4 -13 -55 -237 -55 -244 0 -2 9 -4 20 -4 13 0 20 7 20 20 0 15 7 20 29 20 21 0 32 -6 36 -20 3 -11 15 -20 26 -20 16 0 18 5 12 28 -3 15 -16 72 -27 127 -16 77 -25 101 -39 103 -9 2 -19 -2 -22 -10z m35 -145 c0 -14 -6 -23 -15 -23 -16 0 -20 26 -9 55 5 13 8 14 15 3 5 -7 9 -23 9 -35z"/> <path d="M868 1055 c-2 -2 10 -60 27 -127 26 -102 35 -124 51 -126 18 -3 24 12 52 121 18 69 32 128 32 131 0 3 -9 6 -20 6 -20 0 -32 -30 -46 -118 -4 -23 -10 -45 -14 -47 -4 -3 -16 34 -25 80 -14 66 -22 85 -35 85 -9 0 -19 -2 -22 -5z"/> <path d="M1097 938 c-15 -68 -27 -126 -27 -130 0 -5 9 -8 20 -8 13 0 20 7 20 20 0 29 55 28 63 -1 6 -24 44 -22 39 2 -2 8 -14 64 -26 124 -19 92 -26 110 -42 113 -18 3 -23 -11 -47 -120z m53 0 c0 -7 3 -23 6 -35 5 -19 2 -23 -16 -23 -16 0 -20 4 -16 16 3 9 6 24 6 35 0 10 5 19 10 19 6 0 10 -6 10 -12z"/> <path d="M1933 1044 c-43 -22 -67 -74 -61 -136 6 -60 37 -96 91 -105 33 -5 37 -3 37 16 0 17 -6 21 -29 21 -39 0 -61 32 -61 88 0 51 37 98 71 89 16 -4 20 -1 17 16 -4 28 -24 31 -65 11z"/> <path d="M2360 929 l0 -132 43 7 c69 11 97 63 61 115 -12 17 -13 26 -5 34 33 33 -3 91 -61 101 l-38 7 0 -132z m68 59 c2 -16 -3 -28 -12 -31 -13 -5 -16 1 -16 29 0 41 23 43 28 2z m4 -93 c8 -19 8 -28 -2 -40 -21 -25 -30 -17 -30 25 0 45 15 52 32 15z"/> <path d="M2040 925 l0 -125 50 0 c43 0 50 3 50 20 0 16 -7 20 -30 20 l-30 0 0 105 c0 98 -1 105 -20 105 -19 0 -20 -7 -20 -125z"/> <path d="M2180 945 c0 -118 13 -145 70 -145 57 0 70 27 70 145 0 98 -1 105 -20 105 -19 0 -20 -7 -20 -94 0 -71 -4 -97 -15 -106 -12 -10 -18 -10 -30 0 -11 9 -15 35 -15 106 0 87 -1 94 -20 94 -19 0 -20 -7 -20 -105z"/> <path d="M1505 947 c-16 -12 -11 -13 36 -9 43 3 58 1 69 -13 13 -15 12 -19 -5 -32 -11 -8 -32 -13 -47 -10 -16 2 -28 0 -28 -5 0 -14 54 -9 78 8 12 8 22 21 22 29 0 37 -87 59 -125 32z"/> <path d="M1665 880 c3 -5 13 -10 21 -10 20 0 18 -37 -3 -49 -17 -10 -17 -10 -1 -11 10 0 22 9 28 20 14 26 -3 60 -31 60 -11 0 -17 -4 -14 -10z"/> <path d="M1372 838 c-15 -15 -15 -53 -1 -80 29 -54 187 -79 277 -43 47 19 82 57 82 89 0 16 -4 13 -18 -13 -26 -53 -80 -76 -177 -76 -66 0 -86 4 -118 23 -41 26 -55 59 -37 91 12 24 10 27 -8 9z"/> <path d="M1380 801 c0 -10 30 -24 37 -17 3 3 2 9 -2 15 -8 13 -35 15 -35 2z"/> <path d="M1425 769 c-10 -14 -1 -21 19 -13 9 3 13 10 10 15 -7 12 -21 11 -29 -2z"/> <path d="M1090 576 c-20 -25 -9 -61 19 -61 13 0 26 6 29 14 3 9 -1 11 -17 6 -17 -5 -21 -2 -21 15 0 18 4 20 22 14 20 -6 21 -5 9 10 -17 20 -25 20 -41 2z"/> <path d="M1171 576 c-18 -21 -10 -60 13 -64 27 -6 37 10 28 43 -9 34 -24 41 -41 21z m29 -26 c0 -11 -4 -20 -10 -20 -5 0 -10 9 -10 20 0 11 5 20 10 20 6 0 10 -9 10 -20z"/> <path d="M1247 583 c-4 -3 -7 -22 -7 -40 0 -32 2 -34 28 -31 19 2 28 9 30 26 5 36 -30 67 -51 45z m33 -33 c0 -11 -4 -20 -10 -20 -5 0 -10 9 -10 20 0 11 5 20 10 20 6 0 10 -9 10 -20z"/> <path d="M1330 550 c0 -33 3 -40 20 -40 25 0 27 20 3 21 -12 0 -13 2 -5 6 10 4 10 8 1 19 -9 11 -8 14 5 14 9 0 16 5 16 10 0 6 -9 10 -20 10 -17 0 -20 -7 -20 -40z"/> <path d="M1491 550 c0 -31 3 -39 8 -26 7 18 8 18 14 3 11 -29 24 -18 22 18 -2 37 -15 62 -15 30 0 -18 -1 -18 -15 1 -13 18 -14 16 -14 -26z"/> <path d="M1659 588 c0 -2 -1 -20 -3 -40 -3 -34 0 -38 21 -38 20 0 23 5 23 34 0 22 -6 36 -16 40 -17 6 -24 7 -25 4z"/> <path d="M1737 583 c-10 -10 -8 -73 2 -73 5 0 12 6 14 13 4 10 6 10 6 0 2 -25 16 -13 18 15 2 37 -21 64 -40 45z"/> <path d="M1810 550 c0 -33 3 -40 20 -40 25 0 27 20 3 21 -12 0 -13 2 -5 6 10 4 10 8 1 19 -9 11 -8 14 5 14 9 0 16 5 16 10 0 6 -9 10 -20 10 -17 0 -20 -7 -20 -40z"/> <path d="M1878 585 c-8 -8 13 -75 24 -75 4 0 8 6 8 13 0 8 4 7 10 -3 9 -13 11 -13 20 0 5 8 10 20 10 27 0 6 3 18 6 27 3 9 1 16 -4 16 -6 0 -12 -10 -15 -22 -4 -23 -4 -23 -15 2 l-11 25 -1 -30 -2 -30 -12 28 c-7 15 -15 25 -18 22z"/> </g> </svg> 